<svg width="96" height="30" viewBox="0 0 96 30" fill="none" xmlns="http://www.w3.org/2000/svg">
<path d="M1.548 22.5V9.378H10.764V11.034H3.42V22.5H1.548ZM3.132 16.758V15.138H9.918V16.758H3.132ZM15.5651 22.68C14.4011 22.68 13.5131 22.368 12.9011 21.744C12.2891 21.108 11.9831 20.268 11.9831 19.224V12.366H13.8371V19.062C13.8371 19.686 14.0291 20.172 14.4131 20.52C14.7971 20.856 15.3071 21.024 15.9431 21.024C16.4831 21.024 16.9511 20.916 17.3471 20.7C17.7551 20.484 18.0671 20.19 18.2831 19.818C18.5111 19.434 18.6251 18.99 18.6251 18.486V12.366H20.4791V22.5H18.7691L18.6791 20.97C18.3671 21.498 17.9291 21.918 17.3651 22.23C16.8131 22.53 16.2131 22.68 15.5651 22.68ZM23.0397 22.5V12.366H24.7317L24.8397 13.896C25.2717 13.308 25.7577 12.876 26.2977 12.6C26.8377 12.324 27.4557 12.186 28.1517 12.186C29.1717 12.186 30.0057 12.48 30.6537 13.068C31.3137 13.644 31.6437 14.532 31.6437 15.732V22.5H29.8077V15.912C29.8077 15.276 29.6277 14.772 29.2677 14.4C28.9077 14.028 28.3617 13.842 27.6297 13.842C27.1377 13.842 26.6817 13.95 26.2617 14.166C25.8417 14.37 25.5057 14.67 25.2537 15.066C25.0137 15.462 24.8937 15.936 24.8937 16.488V22.5H23.0397ZM38.4678 22.662C37.4958 22.662 36.6498 22.446 35.9298 22.014C35.2098 21.57 34.6518 20.958 34.2558 20.178C33.8598 19.386 33.6618 18.468 33.6618 17.424C33.6618 16.368 33.8598 15.45 34.2558 14.67C34.6638 13.878 35.2278 13.266 35.9478 12.834C36.6798 12.402 37.5318 12.186 38.5038 12.186C39.7278 12.186 40.7118 12.51 41.4558 13.158C42.2118 13.794 42.6558 14.634 42.7878 15.678L40.9878 15.894C40.9158 15.186 40.6518 14.658 40.1958 14.31C39.7398 13.962 39.1578 13.788 38.4498 13.788C37.5618 13.788 36.8538 14.112 36.3258 14.76C35.8098 15.396 35.5518 16.284 35.5518 17.424C35.5518 18.552 35.8098 19.44 36.3258 20.088C36.8418 20.736 37.5498 21.06 38.4498 21.06C39.1578 21.06 39.7398 20.88 40.1958 20.52C40.6518 20.16 40.9158 19.65 40.9878 18.99L42.7878 19.206C42.6918 19.938 42.4458 20.562 42.0498 21.078C41.6658 21.594 41.1678 21.99 40.5558 22.266C39.9438 22.53 39.2478 22.662 38.4678 22.662ZM47.2344 22.626C46.5624 22.626 46.0464 22.482 45.6864 22.194C45.3384 21.894 45.1644 21.468 45.1644 20.916V9.54L46.9644 9.36V20.16C46.9644 20.532 47.0184 20.778 47.1264 20.898C47.2464 21.018 47.4744 21.078 47.8104 21.078C47.9904 21.078 48.1404 21.072 48.2604 21.06C48.3924 21.048 48.5064 21.03 48.6024 21.006V22.482C48.3384 22.53 48.0924 22.566 47.8644 22.59C47.6364 22.614 47.4264 22.626 47.2344 22.626ZM43.8144 13.806V12.366H46.0644V13.806H43.8144ZM48.6024 13.806H46.0644V12.366H48.6024V13.806ZM50.8307 22.5V12.366H52.6847V22.5H50.8307ZM50.9207 10.692V8.352H52.6127V10.692H50.9207ZM59.7734 22.68C58.7894 22.68 57.9314 22.464 57.1994 22.032C56.4794 21.588 55.9214 20.976 55.5254 20.196C55.1294 19.416 54.9314 18.504 54.9314 17.46C54.9314 16.392 55.1294 15.468 55.5254 14.688C55.9334 13.896 56.4974 13.284 57.2174 12.852C57.9494 12.408 58.8014 12.186 59.7734 12.186C60.7454 12.186 61.5914 12.408 62.3114 12.852C63.0314 13.284 63.5894 13.896 63.9854 14.688C64.3814 15.468 64.5794 16.386 64.5794 17.442C64.5794 18.498 64.3814 19.422 63.9854 20.214C63.5894 20.994 63.0314 21.6 62.3114 22.032C61.5914 22.464 60.7454 22.68 59.7734 22.68ZM59.7554 21.096C60.6914 21.096 61.4174 20.772 61.9334 20.124C62.4614 19.476 62.7254 18.576 62.7254 17.424C62.7254 16.26 62.4614 15.36 61.9334 14.724C61.4174 14.088 60.6974 13.77 59.7734 13.77C58.8254 13.77 58.0874 14.1 57.5594 14.76C57.0434 15.408 56.7854 16.302 56.7854 17.442C56.7854 18.594 57.0434 19.494 57.5594 20.142C58.0874 20.778 58.8194 21.096 59.7554 21.096ZM66.5983 22.5V12.366H68.2903L68.3983 13.896C68.8303 13.308 69.3163 12.876 69.8563 12.6C70.3963 12.324 71.0143 12.186 71.7103 12.186C72.7303 12.186 73.5643 12.48 74.2123 13.068C74.8723 13.644 75.2023 14.532 75.2023 15.732V22.5H73.3663V15.912C73.3663 15.276 73.1863 14.772 72.8263 14.4C72.4663 14.028 71.9203 13.842 71.1883 13.842C70.6963 13.842 70.2403 13.95 69.8203 14.166C69.4003 14.37 69.0643 14.67 68.8123 15.066C68.5723 15.462 68.4523 15.936 68.4523 16.488V22.5H66.5983Z" fill="white"/>
<path d="M78.984 9V3.776H79.824V9H78.984ZM76.952 3.904V3.168H81.832V3.904H76.952ZM82.4693 9V3.168H83.8293L85.5253 7.992H85.4213L87.1333 3.168H88.4693V9H87.6373L87.6853 3.552H87.7893L85.8293 9H85.0853L83.1653 3.544H83.2693V9H82.4693Z" fill="white"/>
</svg>
